<svg xmlns="http://www.w3.org/2000/svg" viewBox="0 0 977.66 1000.94"><defs><style>.cls-1{fill:#36a9e1;}.cls-2{fill:#fff;}</style></defs><g id="Layer_2" data-name="Layer 2"><g id="Layer_1-2" data-name="Layer 1"><g id="logo"><g id="_big-shape" data-name=" big-shape"><path class="cls-1" d="M879.89,0H97.77C43.77,0,0,44.81,0,100.09V900.84c0,55.28,43.77,100.1,97.77,100.1H879.89c54,0,97.77-44.82,97.77-100.1V100.09C977.66,44.81,933.89,0,879.89,0ZM310.76,599.86,130.47,419.78V319.69H230.68L130.47,419.78H310.76Z"/><polygon class="cls-1" points="310.76 419.78 310.76 599.86 130.47 419.78 310.76 419.78"/><polygon class="cls-1" points="230.68 319.69 130.47 419.78 130.47 319.69 230.68 319.69"/></g><g id="sign"><g id="right"><polygon class="cls-2" points="814.83 325.95 814.83 426.04 130.47 426.04 230.68 325.95 310.76 245.96 310.76 325.95 814.83 325.95"/></g><g id="left"><polygon class="cls-2" points="130.47 593.6 130.47 493.51 814.83 493.51 714.62 593.6 634.54 673.59 634.54 593.6 130.47 593.6"/></g></g></g></g></g></svg>